# xmcd CD database file
#
# Track frame offsets:
#	182
#	14707
#	28957
#	48095
#	58220
#	71482
#	81095
#	95625
#	104855
#	118307
#	134557
#	146932
#	160420
#	177440
#
# Disc length: 2587 seconds
#
# Revision: 10
# Processed by: cddbd v1.5.2PL0 Copyright (c) Steve Scherf et al.
# Submitted via: CDex 1.51
#
DISCID=e00a190e
DTITLE=TOM JONES  - TOM JONES - THE GOLDEN HITS
DYEAR=1986
DGENRE=Blues
TTITLE0=Green Green Grass Of Home
TTITLE1=I'm Coming Home
TTITLE2=(It Looks Like) I'll Never Fall In Love Again
TTITLE3=Not Responsible
TTITLE4=Help Yourself
TTITLE5=What's New Pussycat?
TTITLE6=Love Me Tonight
TTITLE7=It's Not Unusual
TTITLE8=Funny Familiar Forgotten Feelings
TTITLE9=Detroit City
TTITLE10=With These Hands
TTITLE11=A Minute Of Your Time
TTITLE12=Without Love
TTITLE13=Delilah
EXTD=YEAR: 1986
EXTT0=
EXTT1=
EXTT2=
EXTT3=
EXTT4=
EXTT5=
EXTT6=
EXTT7=
EXTT8=
EXTT9=
EXTT10=
EXTT11=
EXTT12=
EXTT13=
PLAYORDER=
